<svg width="24" height="24" viewBox="0 0 24 24" fill="none" xmlns="http://www.w3.org/2000/svg">
<g opacity="0.7">
<path d="M5.71429 7.14527L7.16388 11.0627L7.17983 11.1059L7.22296 11.1218L11.1404 12.5714L7.22296 14.021L7.17983 14.037L7.16388 14.0801L5.71429 17.9975L4.2647 14.0801L4.24874 14.037L4.20561 14.021L0.288155 12.5714L4.20561 11.1218L4.24874 11.1059L4.2647 11.0627L5.71429 7.14527Z" fill="#AD3BD6" stroke="white" stroke-width="0.2"/>
<path d="M18.2857 13.9773L19.7366 17.5061L19.754 17.5485L19.7975 17.563L23.6835 18.8572L19.7975 20.1513L19.754 20.1658L19.7366 20.2082L18.2857 23.737L16.8348 20.2082L16.8174 20.1658L16.7739 20.1513L12.8879 18.8572L16.7739 17.563L16.8174 17.5485L16.8348 17.5061L18.2857 13.9773Z" fill="#AD3BD6" stroke="white" stroke-width="0.2"/>
<path d="M18.2857 0.262976L19.7366 3.79185L19.754 3.83422L19.7975 3.8487L23.6835 5.14286L19.7975 6.43702L19.754 6.45149L19.7366 6.49387L18.2857 10.0227L16.8348 6.49387L16.8174 6.45149L16.7739 6.43702L12.8879 5.14286L16.7739 3.8487L16.8174 3.83422L16.8348 3.79185L18.2857 0.262976Z" fill="#AD3BD6" stroke="white" stroke-width="0.2"/>
</g>
</svg>
