<svg width="27" height="28" viewBox="0 0 27 28" fill="none" xmlns="http://www.w3.org/2000/svg">
<path d="M15.804 11.5146C15.3875 11.1059 15.3875 10.4543 15.3875 9.15114V8.81047C15.3875 5.19738 15.3875 3.39084 14.3719 3.07957C13.3562 2.76831 12.2675 4.24123 10.0902 7.1871L6.72189 11.7444C5.30869 13.6565 4.60209 14.6125 4.99144 15.3641C4.99788 15.3767 5.00453 15.389 5.01136 15.4012C5.4238 16.1415 6.64418 16.1415 9.08493 16.1415C10.4413 16.1415 11.1194 16.1415 11.5448 16.5416" stroke="#9323A8" stroke-width="1.54"/>
<path opacity="0.5" d="M15.8039 11.5148L15.8259 11.5359C16.2512 11.936 16.9295 11.936 18.2858 11.936C20.7266 11.936 21.9469 11.936 22.3593 12.6763C22.3662 12.6885 22.3728 12.7008 22.3793 12.7133C22.7686 13.465 22.062 14.421 20.6488 16.333L17.2804 20.8903C15.103 23.8362 14.0144 25.3091 12.9987 24.9978C11.983 24.6866 11.983 22.88 11.9831 19.2669V18.9264C11.9831 17.6232 11.9831 16.9716 11.5668 16.5629L11.5448 16.5417" stroke="#9323A8" stroke-width="1.54"/>
</svg>
