<svg width="800" height="800" viewBox="0 0 800 800" fill="none" xmlns="http://www.w3.org/2000/svg">
<path d="M775 400C775 434.612 764.737 468.446 745.508 497.225C726.279 526.004 698.947 548.434 666.97 561.679C634.993 574.925 599.806 578.39 565.86 571.637C531.913 564.885 500.731 548.217 476.257 523.743C475.9 523.386 475.555 523.018 475.22 522.641L287.874 311.101C270.335 293.764 248.06 282.003 223.852 277.297C199.645 272.591 174.586 275.151 151.829 284.654C129.073 294.158 109.636 310.18 95.9652 330.704C82.294 351.229 74.9994 375.339 74.9994 400C74.9994 424.661 82.294 448.771 95.9652 469.296C109.636 489.82 129.073 505.843 151.829 515.346C174.586 524.849 199.645 527.409 223.852 522.703C248.06 517.997 270.335 506.236 287.874 488.899L314.496 458.84C316.671 456.377 319.311 454.368 322.263 452.926C325.216 451.485 328.424 450.64 331.703 450.439C334.983 450.238 338.269 450.686 341.376 451.756C344.482 452.827 347.347 454.499 349.807 456.677C352.266 458.856 354.272 461.498 355.71 464.452C357.148 467.406 357.989 470.615 358.186 473.895C358.383 477.175 357.931 480.461 356.857 483.566C355.783 486.671 354.107 489.534 351.926 491.991L324.78 522.641C324.446 523.018 324.1 523.385 323.743 523.743C299.269 548.217 268.087 564.885 234.14 571.637C200.193 578.39 165.006 574.925 133.029 561.679C101.052 548.434 73.7204 526.004 54.4911 497.225C35.2617 468.447 24.998 434.612 24.998 400C24.998 365.388 35.2617 331.554 54.4911 302.775C73.7204 273.996 101.052 251.566 133.029 238.321C165.006 225.076 200.193 221.61 234.14 228.363C268.087 235.116 299.269 251.783 323.743 276.257C324.1 276.614 324.446 276.982 324.78 277.359L512.126 488.899C529.665 506.236 551.94 517.997 576.148 522.703C600.355 527.409 625.414 524.849 648.171 515.346C670.927 505.843 690.364 489.82 704.035 469.296C717.706 448.771 725.001 424.661 725.001 400C725.001 375.339 717.706 351.229 704.035 330.704C690.364 310.18 670.927 294.158 648.171 284.654C625.414 275.151 600.355 272.591 576.148 277.297C551.94 282.003 529.665 293.764 512.126 311.101L485.504 341.161C481.105 346.113 474.92 349.116 468.308 349.512C461.696 349.908 455.198 347.663 450.239 343.271C445.28 338.88 442.267 332.7 441.862 326.088C441.456 319.477 443.69 312.975 448.074 308.009L475.22 277.359C475.554 276.982 475.9 276.615 476.257 276.257C500.732 251.784 531.913 235.117 565.86 228.365C599.806 221.612 634.993 225.078 666.969 238.323C698.946 251.568 726.277 273.998 745.507 302.776C764.736 331.555 775 365.389 775 400Z" fill="#9323A8"/>
</svg>
