<svg width="25" height="24" viewBox="0 0 25 24" fill="none" xmlns="http://www.w3.org/2000/svg">
<g opacity="0.7">
<path d="M3.67555 8.35426H4.77702C5.45039 8.35426 5.78707 8.35426 6.09905 8.27032C6.3755 8.19594 6.63671 8.0736 6.87082 7.90884C7.13504 7.7229 7.35057 7.46425 7.78165 6.94697L10.9911 3.09559C11.5236 2.45658 11.7898 2.13707 12.0224 2.10382C12.2239 2.07502 12.4264 2.14835 12.5627 2.29941C12.7201 2.47385 12.7201 2.88975 12.7201 3.72155V20.3203C12.7201 21.1522 12.7201 21.5681 12.5627 21.7425C12.4264 21.8936 12.2239 21.9669 12.0224 21.9381C11.79 21.9048 11.5236 21.5853 10.9911 20.9463L7.78165 17.095C7.35057 16.5777 7.13504 16.319 6.87082 16.1331C6.63671 15.9683 6.3755 15.846 6.09905 15.7716C5.78707 15.6877 5.45039 15.6877 4.77702 15.6877H3.67555C2.99103 15.6877 2.64877 15.6877 2.38732 15.5545C2.15735 15.4372 1.97037 15.2502 1.85318 15.0203C1.71997 14.7589 1.71997 14.4166 1.71997 13.7321V10.3098C1.71997 9.62527 1.71997 9.28306 1.85318 9.0216C1.97037 8.79163 2.15735 8.60465 2.38732 8.48747C2.64877 8.35426 2.99103 8.35426 3.67555 8.35426Z" stroke="#9323A8" stroke-width="2.44447" stroke-linecap="round" stroke-linejoin="round"/>
<path opacity="0.5" d="M17.6094 8.35427C18.3766 9.37565 18.8311 10.6452 18.8311 12.021C18.8311 13.3967 18.3766 14.6663 17.6094 15.6877M20.0534 3.82184C22.3037 5.83603 23.7201 8.76311 23.7201 12.021C23.7201 15.2789 22.3037 18.2059 20.0534 20.2201" stroke="#9323A8" stroke-width="2.44447" stroke-linecap="round" stroke-linejoin="round"/>
</g>
</svg>
