<svg width="470" height="470" viewBox="0 0 470 470" fill="none" xmlns="http://www.w3.org/2000/svg">
<rect x="164" y="164" width="141" height="142" rx="69" stroke="white" stroke-width="30"/>
<path d="M276.195 18.3493C267.617 15 256.745 15 235.001 15C213.255 15 202.384 15 193.806 18.3493C182.371 22.815 173.286 31.3808 168.549 42.1618C166.388 47.0835 165.541 52.807 165.211 61.1557C164.724 73.425 158.05 84.7815 146.772 90.9204C135.495 97.0591 121.726 96.8299 110.213 91.0927C102.379 87.1886 96.6985 85.0176 91.0968 84.3224C78.8253 82.7992 66.4147 85.9343 56.5952 93.0384C49.2304 98.3664 43.7942 107.244 32.9218 124.998C22.0494 142.753 16.6133 151.63 15.4015 160.309C13.7862 171.878 17.1114 183.579 24.6464 192.836C28.0854 197.063 32.9189 200.614 40.4205 205.058C51.4486 211.592 58.5442 222.721 58.5436 235C58.5428 247.277 51.4473 258.405 40.4204 264.938C32.9176 269.383 28.0835 272.937 24.6441 277.162C17.1091 286.42 13.7838 298.119 15.3995 309.69C16.611 318.367 22.0471 327.246 32.9195 345C43.7922 362.754 49.2283 371.633 56.5929 376.959C66.4124 384.063 78.8229 387.197 91.0944 385.675C96.6957 384.98 102.376 382.809 110.21 378.906C121.724 373.169 135.493 372.94 146.771 379.078C158.05 385.217 164.724 396.574 165.211 408.845C165.542 417.192 166.388 422.917 168.549 427.839C173.286 438.619 182.371 447.186 193.806 451.652C202.384 455 213.255 455 235.001 455C256.745 455 267.617 455 276.195 451.652C287.629 447.186 296.715 438.619 301.449 427.839C303.613 422.917 304.459 417.192 304.79 408.844C305.276 396.574 311.949 385.217 323.227 379.078C334.504 372.937 348.274 373.169 359.789 378.906C367.623 382.809 373.303 384.978 378.903 385.674C391.174 387.197 403.586 384.063 413.405 376.959C420.769 371.63 426.206 362.754 437.077 344.997C447.951 327.243 453.387 318.367 454.599 309.69C456.214 298.119 452.888 286.418 445.354 277.161C441.915 272.934 437.08 269.382 429.577 264.938C418.553 258.405 411.456 247.276 411.456 234.997C411.456 222.72 418.553 211.593 429.577 205.062C437.081 200.615 441.916 197.065 445.356 192.836C452.891 183.58 456.216 171.879 454.601 160.31C453.391 151.632 447.954 142.755 437.08 125C426.208 107.245 420.771 98.3678 413.407 93.0399C403.587 85.9359 391.177 82.8006 378.905 84.3239C373.304 85.0191 367.625 87.1899 359.789 91.0936C348.276 96.8309 334.507 97.0604 323.229 90.9211C311.949 84.7819 305.276 73.4245 304.79 61.1547C304.459 52.8066 303.613 47.0832 301.449 42.1618C296.715 31.3808 287.629 22.815 276.195 18.3493Z" stroke="white" stroke-width="30"/>
</svg>
