<svg width="32" height="32" viewBox="0 0 32 32" fill="none" xmlns="http://www.w3.org/2000/svg">
<path d="M16 20.5C18.4853 20.5 20.5 18.4853 20.5 16C20.5 13.5147 18.4853 11.5 16 11.5C13.5147 11.5 11.5 13.5147 11.5 16C11.5 18.4853 13.5147 20.5 16 20.5Z" stroke="white" stroke-width="2"/>
<path d="M18.6481 1.22836C18.0967 1 17.3978 1 16 1C14.6021 1 13.9033 1 13.3519 1.22836C12.6168 1.53284 12.0328 2.11687 11.7283 2.85194C11.5894 3.18751 11.5349 3.57775 11.5137 4.14698C11.4824 4.98352 11.0534 5.75783 10.3284 6.17639C9.60345 6.59494 8.71838 6.57931 7.97828 6.18814C7.47467 5.92195 7.10951 5.77393 6.74941 5.72653C5.96056 5.62267 5.16277 5.83643 4.53154 6.3208C4.05811 6.68407 3.70865 7.28935 3.00974 8.49989C2.31083 9.71045 1.96138 10.3157 1.88348 10.9074C1.77964 11.6962 1.9934 12.494 2.47777 13.1252C2.69884 13.4134 3.00955 13.6555 3.49178 13.9585C4.2007 14.404 4.65683 15.1628 4.65679 16C4.65674 16.8371 4.20062 17.5958 3.49177 18.0412C3.00947 18.3443 2.69872 18.5866 2.47762 18.8747C1.99325 19.5059 1.77949 20.3036 1.88335 21.0925C1.96123 21.6841 2.31068 22.2895 3.00959 23.5C3.70852 24.7105 4.05797 25.3159 4.53139 25.679C5.16262 26.1634 5.96041 26.3771 6.74926 26.2733C7.10933 26.2259 7.47448 26.0779 7.97806 25.8118C8.7182 25.4206 9.60333 25.405 10.3283 25.8235C11.0534 26.2421 11.4824 27.0164 11.5137 27.8531C11.535 28.4222 11.5894 28.8125 11.7283 29.1481C12.0328 29.8831 12.6168 30.4672 13.3519 30.7717C13.9033 31 14.6021 31 16 31C17.3978 31 18.0967 31 18.6481 30.7717C19.3831 30.4672 19.9672 29.8831 20.2715 29.1481C20.4106 28.8125 20.465 28.4222 20.4863 27.853C20.5175 27.0164 20.9465 26.2421 21.6715 25.8235C22.3964 25.4048 23.2816 25.4206 24.0218 25.8118C24.5254 26.0779 24.8905 26.2258 25.2505 26.2732C26.0393 26.3771 26.8372 26.1634 27.4684 25.679C27.9418 25.3157 28.2913 24.7105 28.9901 23.4998C29.6891 22.2893 30.0386 21.6841 30.1165 21.0925C30.2203 20.3036 30.0065 19.5058 29.5222 18.8746C29.3011 18.5864 28.9903 18.3442 28.508 18.0412C27.7993 17.5958 27.3431 16.837 27.3431 15.9998C27.3431 15.1627 27.7993 14.4041 28.508 13.9588C28.9904 13.6556 29.3012 13.4135 29.5223 13.1252C30.0067 12.4941 30.2204 11.6963 30.1166 10.9075C30.0388 10.3158 29.6893 9.71054 28.9903 8.5C28.2914 7.28945 27.9419 6.68417 27.4685 6.3209C26.8373 5.83654 26.0395 5.62277 25.2506 5.72663C24.8906 5.77403 24.5255 5.92204 24.0218 6.1882C23.2817 6.57938 22.3966 6.59503 21.6716 6.17644C20.9465 5.75786 20.5175 4.98349 20.4863 4.14691C20.465 3.57772 20.4106 3.18749 20.2715 2.85194C19.9672 2.11687 19.3831 1.53284 18.6481 1.22836Z" stroke="white" stroke-width="2"/>
</svg>
