<svg width="476" height="476" viewBox="0 0 476 476" fill="none" xmlns="http://www.w3.org/2000/svg">
<path d="M238.472 311.887C279.049 311.887 311.943 278.993 311.943 238.415C311.943 197.837 279.049 164.943 238.472 164.943C197.894 164.943 165 197.837 165 238.415C165 278.993 197.894 311.887 238.472 311.887Z" stroke="white" stroke-width="35"/>
<path d="M279.195 21.3493C270.617 18 259.745 18 238.001 18C216.255 18 205.384 18 196.806 21.3493C185.371 25.815 176.286 34.3808 171.549 45.1618C169.388 50.0835 168.541 55.807 168.211 64.1557C167.724 76.425 161.05 87.7815 149.772 93.9204C138.495 100.059 124.726 99.8299 113.213 94.0927C105.379 90.1886 99.6985 88.0176 94.0968 87.3224C81.8253 85.7992 69.4147 88.9343 59.5952 96.0384C52.2304 101.366 46.7942 110.244 35.9218 127.998C25.0494 145.753 19.6133 154.63 18.4015 163.309C16.7862 174.878 20.1114 186.579 27.6464 195.836C31.0854 200.063 35.9189 203.614 43.4205 208.058C54.4486 214.592 61.5442 225.721 61.5436 238C61.5428 250.277 54.4473 261.405 43.4204 267.938C35.9176 272.383 31.0835 275.937 27.6441 280.162C20.1091 289.42 16.7838 301.119 18.3995 312.69C19.611 321.367 25.0471 330.246 35.9195 348C46.7922 365.754 52.2283 374.633 59.5929 379.959C69.4124 387.063 81.8229 390.197 94.0944 388.675C99.6957 387.98 105.376 385.809 113.21 381.906C124.724 376.169 138.493 375.94 149.771 382.078C161.05 388.217 167.724 399.574 168.211 411.845C168.542 420.192 169.388 425.917 171.549 430.839C176.286 441.619 185.371 450.186 196.806 454.652C205.384 458 216.255 458 238.001 458C259.745 458 270.617 458 279.195 454.652C290.629 450.186 299.715 441.619 304.449 430.839C306.613 425.917 307.459 420.192 307.79 411.844C308.276 399.574 314.949 388.217 326.227 382.078C337.504 375.937 351.274 376.169 362.789 381.906C370.623 385.809 376.303 387.978 381.903 388.674C394.174 390.197 406.586 387.063 416.405 379.959C423.769 374.63 429.206 365.754 440.077 347.997C450.951 330.243 456.387 321.367 457.599 312.69C459.214 301.119 455.888 289.418 448.354 280.161C444.915 275.934 440.08 272.382 432.577 267.938C421.553 261.405 414.456 250.276 414.456 237.997C414.456 225.72 421.553 214.593 432.577 208.062C440.081 203.615 444.916 200.065 448.356 195.836C455.891 186.58 459.216 174.879 457.601 163.31C456.391 154.632 450.954 145.755 440.08 128C429.208 110.245 423.771 101.368 416.407 96.0399C406.587 88.9359 394.177 85.8006 381.905 87.3239C376.304 88.0191 370.625 90.1899 362.789 94.0936C351.276 99.8309 337.507 100.06 326.229 93.9211C314.949 87.7819 308.276 76.4245 307.79 64.1547C307.459 55.8066 306.613 50.0832 304.449 45.1618C299.715 34.3808 290.629 25.815 279.195 21.3493Z" stroke="white" stroke-width="35"/>
</svg>
