<svg width="56" height="56" viewBox="0 0 56 56" fill="none" xmlns="http://www.w3.org/2000/svg">
<mask id="path-1-outside-1_395_782" maskUnits="userSpaceOnUse" x="33" y="31.1538" width="13" height="16" fill="black">
<rect fill="white" x="33" y="31.1538" width="13" height="16"/>
<path d="M41.5319 40.5693V40.4932C41.5319 40.4498 41.4848 40.2252 41.3906 39.8196C41.3037 39.4067 41.2385 39.1278 41.195 38.9829C41.1588 38.838 41.032 38.2911 40.8147 37.3422C40.6047 36.386 40.3692 35.6291 40.1085 35.0713C39.8477 34.5063 39.692 34.2238 39.6413 34.2238C39.5978 34.2238 39.4493 34.5099 39.1958 35.0822C37.9498 37.9289 37.3269 39.7652 37.3269 40.591V40.6562C37.3269 40.859 37.6601 40.9604 38.3265 40.9604H38.7937L38.8915 40.9496L39.8368 40.9604H40.3041L40.391 40.9496H40.5648L40.9125 40.9279C41.3254 40.9279 41.5319 40.8083 41.5319 40.5693ZM45.5087 46.1107V46.3063C45.5087 46.5888 45.2877 46.7301 44.8459 46.7301C44.4113 46.7301 44.0346 46.549 43.7159 46.1868C43.4044 45.8246 43.0893 45.256 42.7705 44.4809C42.4518 43.7058 42.2164 43.2458 42.0643 43.101C41.7238 42.7822 41.0284 42.6229 39.9781 42.6229C38.37 42.6229 37.3377 42.7678 36.8814 43.0575C36.6061 43.2314 36.2874 43.7493 35.9252 44.6113C35.563 45.4733 35.3566 45.9478 35.3059 46.0347C35.0161 46.4983 34.6503 46.7301 34.2085 46.7301H34.0237C33.6833 46.7301 33.5131 46.5599 33.5131 46.2194C33.5131 45.9514 33.7557 45.0568 34.2411 43.5356C36.0158 37.9652 37.0516 34.8178 37.3486 34.0934C37.6528 33.369 37.9643 32.8076 38.2831 32.4092C38.6018 32.0036 39.0183 31.8007 39.5326 31.8007C40.0541 31.8007 40.4888 32 40.8365 32.3984C41.1842 32.7895 41.6333 33.6551 42.1838 34.9952C43.2341 37.5378 44.1034 40.2795 44.7915 43.2205C44.864 43.5247 45.0016 44.0282 45.2044 44.7308C45.4073 45.4335 45.5087 45.8934 45.5087 46.1107Z"/>
</mask>
<path d="M41.5319 40.5693V40.4932C41.5319 40.4498 41.4848 40.2252 41.3906 39.8196C41.3037 39.4067 41.2385 39.1278 41.195 38.9829C41.1588 38.838 41.032 38.2911 40.8147 37.3422C40.6047 36.386 40.3692 35.6291 40.1085 35.0713C39.8477 34.5063 39.692 34.2238 39.6413 34.2238C39.5978 34.2238 39.4493 34.5099 39.1958 35.0822C37.9498 37.9289 37.3269 39.7652 37.3269 40.591V40.6562C37.3269 40.859 37.6601 40.9604 38.3265 40.9604H38.7937L38.8915 40.9496L39.8368 40.9604H40.3041L40.391 40.9496H40.5648L40.9125 40.9279C41.3254 40.9279 41.5319 40.8083 41.5319 40.5693ZM45.5087 46.1107V46.3063C45.5087 46.5888 45.2877 46.7301 44.8459 46.7301C44.4113 46.7301 44.0346 46.549 43.7159 46.1868C43.4044 45.8246 43.0893 45.256 42.7705 44.4809C42.4518 43.7058 42.2164 43.2458 42.0643 43.101C41.7238 42.7822 41.0284 42.6229 39.9781 42.6229C38.37 42.6229 37.3377 42.7678 36.8814 43.0575C36.6061 43.2314 36.2874 43.7493 35.9252 44.6113C35.563 45.4733 35.3566 45.9478 35.3059 46.0347C35.0161 46.4983 34.6503 46.7301 34.2085 46.7301H34.0237C33.6833 46.7301 33.5131 46.5599 33.5131 46.2194C33.5131 45.9514 33.7557 45.0568 34.2411 43.5356C36.0158 37.9652 37.0516 34.8178 37.3486 34.0934C37.6528 33.369 37.9643 32.8076 38.2831 32.4092C38.6018 32.0036 39.0183 31.8007 39.5326 31.8007C40.0541 31.8007 40.4888 32 40.8365 32.3984C41.1842 32.7895 41.6333 33.6551 42.1838 34.9952C43.2341 37.5378 44.1034 40.2795 44.7915 43.2205C44.864 43.5247 45.0016 44.0282 45.2044 44.7308C45.4073 45.4335 45.5087 45.8934 45.5087 46.1107Z" fill="white"/>
<path d="M41.3906 39.8196L41.1949 39.8608L41.1958 39.8648L41.3906 39.8196ZM41.195 38.9829L41.0008 39.0315L41.0035 39.0404L41.195 38.9829ZM40.8147 37.3422L40.6194 37.3851L40.6198 37.3868L40.8147 37.3422ZM40.1085 35.0713L39.9269 35.1551L39.9273 35.156L40.1085 35.0713ZM39.1958 35.0822L39.0129 35.0011L39.0125 35.002L39.1958 35.0822ZM38.7937 40.9604V41.1604H38.8048L38.8158 41.1592L38.7937 40.9604ZM38.8915 40.9496L38.8938 40.7496L38.8816 40.7495L38.8694 40.7508L38.8915 40.9496ZM39.8368 40.9604L39.8345 41.1604H39.8368V40.9604ZM40.3041 40.9604V41.1604H40.3165L40.3289 41.1589L40.3041 40.9604ZM40.391 40.9496V40.7496H40.3785L40.3662 40.7511L40.391 40.9496ZM40.5648 40.9496V41.15L40.5773 41.1492L40.5648 40.9496ZM40.9125 40.9279V40.7275L40.9001 40.7282L40.9125 40.9279ZM43.7159 46.1868L43.5642 46.3172L43.5657 46.3189L43.7159 46.1868ZM42.0643 43.101L42.2022 42.9561L42.201 42.955L42.0643 43.101ZM36.8814 43.0575L36.9882 43.2266L36.9886 43.2264L36.8814 43.0575ZM35.9252 44.6113L35.7408 44.5338L35.9252 44.6113ZM35.3059 46.0347L35.4756 46.1407L35.4786 46.1355L35.3059 46.0347ZM34.2411 43.5356L34.4316 43.5964L34.4316 43.5963L34.2411 43.5356ZM37.3486 34.0934L37.1642 34.0159L37.1636 34.0175L37.3486 34.0934ZM38.2831 32.4092L38.4392 32.5342L38.4403 32.5328L38.2831 32.4092ZM40.8365 32.3984L40.6858 32.5299L40.687 32.5312L40.8365 32.3984ZM42.1838 34.9952L41.9988 35.0712L41.999 35.0716L42.1838 34.9952ZM44.7915 43.2205L44.5968 43.2661L44.597 43.2668L44.7915 43.2205ZM45.2044 44.7308L45.0123 44.7863L45.2044 44.7308ZM41.7319 40.5693V40.4932H41.3319V40.5693H41.7319ZM41.7319 40.4932C41.7319 40.4618 41.7253 40.4221 41.72 40.3921C41.7136 40.3555 41.7043 40.3082 41.6923 40.2512C41.6683 40.1368 41.6326 39.9776 41.5854 39.7743L41.1958 39.8648C41.2428 40.0671 41.2777 40.2231 41.3008 40.3333C41.3124 40.3885 41.3207 40.4309 41.3261 40.4613C41.3326 40.4983 41.3319 40.5029 41.3319 40.4932H41.7319ZM41.5863 39.7784C41.4996 39.3664 41.4328 39.0795 41.3866 38.9254L41.0035 39.0404C41.0442 39.176 41.1078 39.4469 41.1949 39.8608L41.5863 39.7784ZM41.3891 38.9344C41.3535 38.792 41.2273 38.2478 41.0097 37.2976L40.6198 37.3868C40.8368 38.3345 40.9642 38.8841 41.001 39.0314L41.3891 38.9344ZM41.0101 37.2993C40.7985 36.3361 40.5592 35.5632 40.2896 34.9866L39.9273 35.156C40.1793 35.695 40.4109 36.436 40.6194 37.3851L41.0101 37.2993ZM40.2901 34.9875C40.1592 34.7038 40.0526 34.4868 39.9712 34.3391C39.931 34.2661 39.8938 34.2044 39.8605 34.1587C39.8442 34.1365 39.824 34.1113 39.8004 34.0897C39.7869 34.0773 39.7293 34.0238 39.6413 34.0238V34.4238C39.5989 34.4238 39.5686 34.4095 39.5552 34.4021C39.5408 34.3941 39.5323 34.3865 39.53 34.3844C39.5256 34.3804 39.5279 34.3816 39.5375 34.3947C39.5558 34.4197 39.5833 34.4639 39.6209 34.5322C39.6953 34.6671 39.797 34.8737 39.9269 35.1551L40.2901 34.9875ZM39.6413 34.0238C39.5855 34.0238 39.5446 34.0457 39.525 34.0581C39.5035 34.0717 39.4873 34.0868 39.4768 34.0976C39.4557 34.1192 39.4375 34.1442 39.4229 34.166C39.3926 34.2112 39.3579 34.2727 39.3198 34.3462C39.2426 34.4949 39.1401 34.7141 39.0129 35.0011L39.3786 35.1632C39.505 34.878 39.6035 34.668 39.6748 34.5305C39.7109 34.461 39.7374 34.4152 39.755 34.3889C39.7644 34.3749 39.7669 34.373 39.7633 34.3768C39.7615 34.3786 39.7532 34.3871 39.7387 34.3962C39.7262 34.4041 39.6916 34.4238 39.6413 34.4238V34.0238ZM39.0125 35.002C38.3885 36.4279 37.9188 37.6045 37.6047 38.5302C37.2931 39.4487 37.1269 40.142 37.1269 40.591H37.5269C37.5269 40.2143 37.6721 39.5765 37.9835 38.6587C38.2924 37.7482 38.7571 36.5832 39.379 35.1623L39.0125 35.002ZM37.1269 40.591V40.6562H37.5269V40.591H37.1269ZM37.1269 40.6562C37.1269 40.901 37.3367 41.0204 37.5186 41.0757C37.7142 41.1353 37.9881 41.1604 38.3265 41.1604V40.7604C37.9985 40.7604 37.7726 40.7349 37.635 40.6931C37.4837 40.647 37.5269 40.6142 37.5269 40.6562H37.1269ZM38.3265 41.1604H38.7937V40.7604H38.3265V41.1604ZM38.8158 41.1592L38.9136 41.1484L38.8694 40.7508L38.7716 40.7617L38.8158 41.1592ZM38.8892 41.1496L39.8345 41.1604L39.8391 40.7605L38.8938 40.7496L38.8892 41.1496ZM39.8368 41.1604H40.3041V40.7604H39.8368V41.1604ZM40.3289 41.1589L40.4158 41.148L40.3662 40.7511L40.2792 40.762L40.3289 41.1589ZM40.391 41.1496H40.5648V40.7496H40.391V41.1496ZM40.5773 41.1492L40.925 41.1275L40.9001 40.7282L40.5524 40.75L40.5773 41.1492ZM40.9125 41.1279C41.1317 41.1279 41.3287 41.0973 41.4772 41.0113C41.6424 40.9157 41.7319 40.76 41.7319 40.5693H41.3319C41.3319 40.6176 41.3181 40.6412 41.2768 40.6651C41.2189 40.6987 41.1062 40.7279 40.9125 40.7279V41.1279ZM45.3087 46.1107V46.3063H45.7087V46.1107H45.3087ZM45.3087 46.3063C45.3087 46.3857 45.2831 46.425 45.2352 46.4556C45.1721 46.496 45.0519 46.5301 44.8459 46.5301V46.9301C45.0817 46.9301 45.2929 46.8936 45.4507 46.7926C45.6238 46.682 45.7087 46.5095 45.7087 46.3063H45.3087ZM44.8459 46.5301C44.4754 46.5301 44.1514 46.379 43.866 46.0547L43.5657 46.3189C43.9177 46.7189 44.3471 46.9301 44.8459 46.9301V46.5301ZM43.8675 46.0564C43.5767 45.7182 43.2713 45.1727 42.9555 44.4048L42.5856 44.557C42.9073 45.3393 43.2321 45.931 43.5642 46.3172L43.8675 46.0564ZM42.9555 44.4048C42.7952 44.0149 42.6543 43.7005 42.533 43.4635C42.4157 43.2343 42.3056 43.0546 42.2022 42.9561L41.9264 43.2458C41.9751 43.2922 42.0588 43.4149 42.1769 43.6457C42.291 43.8687 42.4272 44.1718 42.5856 44.557L42.9555 44.4048ZM42.201 42.955C41.9947 42.7619 41.6974 42.6312 41.3321 42.5475C40.9646 42.4632 40.5119 42.4229 39.9781 42.4229V42.8229C40.4946 42.8229 40.9148 42.8622 41.2427 42.9374C41.5727 43.013 41.7934 43.1213 41.9276 43.247L42.201 42.955ZM39.9781 42.4229C39.1691 42.4229 38.4989 42.4593 37.97 42.5335C37.4471 42.6069 37.0397 42.7201 36.7742 42.8887L36.9886 43.2264C37.1794 43.1052 37.5163 43.0011 38.0256 42.9296C38.529 42.8589 39.1789 42.8229 39.9781 42.8229V42.4229ZM36.7746 42.8884C36.5974 43.0003 36.4294 43.2054 36.2656 43.4715C36.0988 43.7426 35.924 44.0978 35.7408 44.5338L36.1096 44.6888C36.2886 44.2628 36.4543 43.9281 36.6062 43.6812C36.7612 43.4294 36.8901 43.2885 36.9882 43.2266L36.7746 42.8884ZM35.7408 44.5338C35.5599 44.9646 35.4181 45.2978 35.3154 45.5338C35.2096 45.7769 35.151 45.9033 35.1331 45.9339L35.4786 46.1355C35.5115 46.0791 35.5814 45.9249 35.6821 45.6934C35.7859 45.4551 35.9284 45.12 36.1096 44.6888L35.7408 44.5338ZM35.1363 45.9287C34.8731 46.3498 34.5644 46.5301 34.2085 46.5301V46.9301C34.7362 46.9301 35.1592 46.6468 35.4755 46.1407L35.1363 45.9287ZM34.2085 46.5301H34.0237V46.9301H34.2085V46.5301ZM34.0237 46.5301C33.8843 46.5301 33.8165 46.4954 33.7821 46.461C33.7478 46.4266 33.7131 46.3588 33.7131 46.2194H33.3131C33.3131 46.4205 33.3635 46.608 33.4993 46.7438C33.6352 46.8797 33.8227 46.9301 34.0237 46.9301V46.5301ZM33.7131 46.2194C33.7131 46.1746 33.7243 46.0858 33.7543 45.9418C33.7835 45.8018 33.8279 45.6215 33.8881 45.3998C34.0083 44.9566 34.1893 44.3559 34.4316 43.5964L34.0505 43.4748C33.8075 44.2365 33.6245 44.8436 33.502 45.2951C33.4408 45.5207 33.3942 45.7093 33.3628 45.86C33.3322 46.0066 33.3131 46.1302 33.3131 46.2194H33.7131ZM34.4316 43.5963C36.2081 38.0202 37.2406 34.884 37.5337 34.1693L37.1636 34.0175C36.8626 34.7516 35.8234 37.9102 34.0505 43.4749L34.4316 43.5963ZM37.533 34.1708C37.8335 33.4554 38.1365 32.9125 38.4392 32.5342L38.1269 32.2843C37.7921 32.7027 37.4722 33.2826 37.1642 34.0159L37.533 34.1708ZM38.4403 32.5328C38.7213 32.1752 39.0799 32.0007 39.5326 32.0007V31.6007C38.9567 31.6007 38.4823 31.8319 38.1258 32.2857L38.4403 32.5328ZM39.5326 32.0007C39.9955 32.0007 40.3755 32.1743 40.6858 32.5299L40.9872 32.2668C40.6021 31.8256 40.1128 31.6007 39.5326 31.6007V32.0007ZM40.687 32.5312C41.0088 32.8933 41.4467 33.7274 41.9988 35.0712L42.3688 34.9192C41.8198 33.5829 41.3595 32.6858 40.986 32.2655L40.687 32.5312ZM41.999 35.0716C43.0448 37.6033 43.9109 40.3346 44.5968 43.2661L44.9863 43.1749C44.2959 40.2245 43.4235 37.4723 42.3687 34.9189L41.999 35.0716ZM44.597 43.2668C44.6706 43.5761 44.8094 44.0835 45.0123 44.7863L45.3966 44.6753C45.1938 43.9728 45.0573 43.4734 44.9861 43.1742L44.597 43.2668ZM45.0123 44.7863C45.1131 45.1355 45.1879 45.4216 45.2373 45.6458C45.2876 45.8741 45.3087 46.0253 45.3087 46.1107H45.7087C45.7087 45.9788 45.679 45.7914 45.6279 45.5597C45.5759 45.3239 45.4986 45.0288 45.3966 44.6753L45.0123 44.7863Z" fill="white" mask="url(#path-1-outside-1_395_782)"/>
<path d="M18.9411 13.6735C16.6855 13.3084 5.98081 15.091 9.82574 11.1759C18.6177 10.8197 13.2112 12.0666 16.5814 8.01506C18.3609 7.82303 18.4553 9.50959 18.329 10.663C19.6032 12.1904 24.9958 9.45653 25 12.7185C24.306 14.2269 21.6464 13.0381 21.7214 15.206C21.5673 17.0315 18.4581 19.2069 19.3395 20.685C20.5263 22.2832 26.8475 23.7865 23.9326 25.9456C21.0177 26.5128 18.9245 22.4613 16.5162 22.3703C9.94927 28.3674 5.12854 25.7371 14.4521 20.6295C15.1892 19.4685 13.1099 18.2165 12.7879 17.0138C11.8245 15.3904 14.2897 14.2079 15.2003 15.8098C15.7763 16.271 16.3788 18.4755 17.1394 17.8754C17.8099 16.8761 19.9558 13.8479 18.9397 13.6748L18.9411 13.6735Z" fill="white"/>
<path d="M24.0009 40.4998C24.0119 46.5825 24.1611 49.7676 26.1968 51.8031C28.3934 53.9998 31.929 53.9998 39 53.9998C46.0711 53.9998 49.6066 53.9998 51.8033 51.8031C54 49.6065 54 46.071 54 38.9998C54 31.9288 54 28.3932 51.8033 26.1965C49.7678 24.161 46.5826 24.0117 40.5 24.0007" stroke="white" stroke-width="2.6" stroke-linecap="round"/>
<path d="M15.5 2.00002C9.41738 2.01097 6.23228 2.16022 4.19678 4.19587C2.00003 6.39247 2.00003 9.92811 2.00003 16.9991C2.00003 24.0702 2.00003 27.6057 4.19678 29.8024C6.39338 31.9991 9.92888 31.9991 17 31.9991C24.0711 31.9991 27.6066 31.9991 29.8033 29.8024C31.8389 27.7669 31.9882 24.5817 31.9991 18.4991" stroke="white" stroke-width="2.6" stroke-linecap="round"/>
</svg>
