<svg width="38" height="31" viewBox="0 0 38 31" fill="none" xmlns="http://www.w3.org/2000/svg">
<g clip-path="url(#clip0_285_899)">
<path d="M16.2954 17.3239C8.96262 16.5965 12.2458 18.5536 7.0502 20.9517C4.01318 21.3099 6.13121 17.924 5.14073 17.298C-1.3018 16.7674 -0.503666 6.81983 1.21862 2.54229C5.73472 -2.04898 13.7669 1.16232 19.6324 0.278843C24.287 0.118279 25.5369 5.03067 25.0638 8.83539C28.8061 10.7444 36.5324 6.70144 37.9194 13.9971C37.8928 19.4985 39.1375 25.0857 32.7024 26.7683C32.8667 28.0647 33.1645 30.3555 31.1629 30.0573C29.0028 29.6615 28.1251 27.4935 26.7404 26.3784C18.9057 27.1871 15.4973 25.0569 16.2947 17.3246L16.2954 17.3239ZM6.72446 19.4527C12.3711 16.1688 6.77236 15.3956 15.9844 15.8314C16.8651 15.2854 15.837 10.7378 18.2108 12.006C18.1975 15.773 15.5872 24.4975 21.6597 24.8793C30.2969 24.9378 25.6474 23.8175 31.0059 28.3888C31.4171 28.6441 31.4311 28.28 31.3375 27.9544C30.3611 24.2733 32.3656 25.3654 34.7091 24.1786C37.374 22.5041 37.0276 14.3752 35.3849 12.0837C31.9544 8.72884 24.9422 12.7356 21.8189 10.0259C21.8167 9.27269 22.6863 9.30451 23.2405 9.34891C24.0416 8.31152 23.6061 5.5723 23.2685 4.13832C20.0399 -0.64311 10.0489 2.54673 4.76562 1.84897C0.115382 3.08762 2.1435 8.99596 1.7566 12.5365C2.73676 17.8041 8.51233 13.3512 6.72446 19.4527Z" fill="white"/>
<path d="M16.2957 17.324C16.3561 17.3047 16.4379 17.2293 16.4711 17.3306C16.4954 17.506 16.2648 17.5082 16.2957 17.324Z" fill="white"/>
<path d="M13.0693 6.38263C11.8717 6.16879 6.18827 7.21283 8.22966 4.91979C12.8976 4.71113 10.0271 5.44144 11.8165 3.06848C12.7612 2.95601 12.8114 3.94382 12.7443 4.61938C13.4208 5.51395 16.2839 3.91274 16.2861 5.82324C15.9177 6.70672 14.5056 6.01044 14.5454 7.28016C14.4636 8.34936 12.8128 9.62352 13.2808 10.4892C13.9109 11.4253 17.267 12.3058 15.7194 13.5703C14.1718 13.9025 13.0604 11.5296 11.7818 11.4763C8.29525 14.9888 5.73578 13.4482 10.686 10.4567C11.0773 9.77669 9.97331 9.04342 9.80234 8.339C9.29089 7.38819 10.5997 6.69562 11.0832 7.63385C11.389 7.90392 11.7089 9.1951 12.1127 8.84364C12.4687 8.25835 13.608 6.48474 13.0686 6.38337L13.0693 6.38263Z" fill="white"/>
<path d="M27.0414 13.5526C29.1881 13.9255 28.8764 17.742 29.819 19.4313C30.0946 20.3851 30.7977 21.6733 29.3075 21.8642C27.5344 21.4572 29.4652 19.5645 26.1194 20.1187C25.605 20.0913 25.731 20.9541 25.5299 21.3085C25.2712 22.3488 23.4008 21.7488 23.8857 20.7077C25.0435 18.59 24.5888 14.3184 27.0414 13.5518V13.5526ZM26.23 18.7306C28.6789 19.2078 27.3376 17.4505 27.0686 15.9137C26.6493 16.6529 26.5513 17.8123 26.23 18.7306Z" fill="white"/>
<path d="M20.2738 10.5714C20.3984 11.52 18.7992 11.5325 18.8036 10.5433C18.8242 9.67087 20.3461 9.61686 20.2738 10.5714Z" fill="white"/>
<path d="M13.0693 6.38263C13.129 6.29679 13.227 6.29457 13.2616 6.36931C13.3235 6.48844 13.042 6.50545 13.0693 6.38263Z" fill="white"/>
</g>
<defs>
<clipPath id="clip0_285_899">
<rect width="38" height="30.0833" fill="white"/>
</clipPath>
</defs>
</svg>
