<svg width="56" height="56" viewBox="0 0 56 56" fill="none" xmlns="http://www.w3.org/2000/svg">
<path d="M18.9411 13.6735C16.6855 13.3084 5.98081 15.091 9.82574 11.1759C18.6177 10.8197 13.2112 12.0666 16.5814 8.01506C18.3609 7.82303 18.4553 9.50959 18.329 10.663C19.6032 12.1904 24.9958 9.45653 25 12.7185C24.306 14.2269 21.6464 13.0381 21.7214 15.206C21.5673 17.0315 18.4581 19.2069 19.3395 20.685C20.5263 22.2832 26.8475 23.7865 23.9326 25.9456C21.0177 26.5128 18.9245 22.4613 16.5162 22.3703C9.94927 28.3674 5.12854 25.7371 14.4521 20.6295C15.1892 19.4685 13.1099 18.2165 12.7879 17.0138C11.8245 15.3904 14.2897 14.2079 15.2003 15.8098C15.7763 16.271 16.3788 18.4755 17.1394 17.8754C17.8099 16.8761 19.9558 13.8479 18.9397 13.6748L18.9411 13.6735Z" fill="white"/>
<path opacity="0.5" d="M24.0009 40.4998C24.0119 46.5825 24.1611 49.7676 26.1968 51.8031C28.3934 53.9998 31.929 53.9998 39 53.9998C46.0711 53.9998 49.6066 53.9998 51.8033 51.8031C54 49.6065 54 46.071 54 38.9998C54 31.9288 54 28.3932 51.8033 26.1965C49.7678 24.161 46.5826 24.0117 40.5 24.0007" stroke="white" stroke-width="2.25" stroke-linecap="round"/>
<path d="M39.0618 30.0016C44.4108 30.8092 43.634 39.0737 45.9826 42.7317C46.6693 44.797 48.4211 47.5866 44.7082 48C40.2903 47.1187 45.1012 43.0201 36.7647 44.2202C35.483 44.1609 35.797 46.0292 35.2957 46.7967C34.6512 49.0495 29.9908 47.75 31.1991 45.4956C34.0838 40.9099 32.9508 31.66 39.0618 30V30.0016ZM37.0401 41.2143C43.1419 42.2478 39.8 38.4424 39.1298 35.1145C38.0849 36.7152 37.8407 39.2259 37.0401 41.2143Z" fill="white"/>
<path opacity="0.5" d="M15.5 2.00002C9.41738 2.01097 6.23228 2.16022 4.19678 4.19587C2.00003 6.39247 2.00003 9.92811 2.00003 16.9991C2.00003 24.0702 2.00003 27.6057 4.19678 29.8024C6.39338 31.9991 9.92888 31.9991 17 31.9991C24.0711 31.9991 27.6066 31.9991 29.8033 29.8024C31.8389 27.7669 31.9882 24.5817 31.9991 18.4991" stroke="white" stroke-width="2.25" stroke-linecap="round"/>
</svg>
